<?xml version="1.0"?>
<svg xmlns="http://www.w3.org/2000/svg" viewBox="0 0 64 64" width="512" height="512"><g id="outline"><path d="M61,40H60V20H58v2H56V20H54v2H52V20H50v2H48V20H46v2H44V20H42v6H40V5a1,1,0,0,0-1-1H35a.987.987,0,0,0-.349.07L18.818,10H10a1,1,0,0,0-1,1V24H7v2H9v2a1,1,0,0,0,1,1,1,1,0,1,1-1,1H7a3,3,0,1,0,4-2.829V26h2V24H11V16h5.586L32.014,31.428,28.341,40H18V37a1,1,0,0,0-1-1H5a1,1,0,0,0-1,1v3H3a1,1,0,0,0-1,1v7a1,1,0,0,0,.519.876l20,11A.985.985,0,0,0,23,60H58a1,1,0,0,0,.978-.791l3-14A2.1,2.1,0,0,0,62,45V41A1,1,0,0,0,61,40ZM56,24h2v2H56Zm-4,0h2v2H52Zm-4,0h2v2H48Zm-4,0h2v2H44ZM36,6h2V26H36Zm-2,.443V24.586L20.805,11.391Zm-16.293,7.85A1,1,0,0,0,17,14H11V12h7.586L33.814,27.228l-.951,2.22ZM35.659,28H58V40H30.517ZM6,38H16v2H6ZM57.191,58H23.257L4,47.409V46H59.763ZM60,44H4V42H60Z"/><path d="M53,31a3,3,0,1,0,3,3A3,3,0,0,0,53,31Zm0,4a1,1,0,1,1,1-1A1,1,0,0,1,53,35Z"/><path d="M45,31a3,3,0,1,0,3,3A3,3,0,0,0,45,31Zm0,4a1,1,0,1,1,1-1A1,1,0,0,1,45,35Z"/><path d="M37,31a3,3,0,1,0,3,3A3,3,0,0,0,37,31Zm0,4a1,1,0,1,1,1-1A1,1,0,0,1,37,35Z"/><path d="M55.97,55.243l1-4-1.94-.486L54.219,54H49v2h6A1,1,0,0,0,55.97,55.243Z"/><rect x="45" y="54" width="2" height="2"/><path d="M24,56h5V54H24.252L11.474,47.12l-.948,1.76,13,7A1,1,0,0,0,24,56Z"/></g></svg>
