<svg id="Capa_1" enable-background="new 0 0 512 512" height="512" viewBox="0 0 512 512" width="512" xmlns="http://www.w3.org/2000/svg"><g><g><path d="m415.972 404.289h-173.097c-6.961 0-12.605-5.643-12.605-12.605v-24.598l142.472-197.792c.245-.339.816-1.344.824-1.36 1.875-3.727 1.242-8.265-1.653-11.342l-144.36-153.384s-.007-.007-.019-.02c-3.911-4.259-10.637-4.247-14.542.018-.001.002-.002.003-.002.003l-144.359 153.384c-2.87 3.049-3.497 7.513-1.727 11.189.005.01.877 1.482.899 1.512l142.47 197.792v24.598c0 18.006 14.597 32.603 32.602 32.603h172.8c5.265 0 9.873 3.9 10.366 9.142.565 6.014-4.17 11.09-10.069 11.09h-44.913c-5.325 0-9.976 4.018-10.32 9.332-.378 5.823 4.235 10.665 9.977 10.665h44.615c16.386 0 30.254-12.823 30.741-29.201.505-17.019-13.192-31.026-30.1-31.026zm-185.702-71.418v-159.422h114.833zm0-179.419v-118.178l111.224 118.178zm-19.997-118.178v118.178h-111.225zm0 138.175v159.422l-114.833-159.422z"/><path d="m391.208 492.002h-187.636c-7.578 0-13.743-6.165-13.743-13.743 0-7.577 6.165-13.742 13.743-13.742h76.742c5.522 0 9.999-4.477 9.999-9.999s-4.477-9.999-9.999-9.999h-76.742c-18.605 0-33.741 15.136-33.741 33.74 0 18.605 15.136 33.741 33.741 33.741h187.636c5.522 0 9.999-4.477 9.999-9.999s-4.477-9.999-9.999-9.999z"/><path d="m317.381 460.066c2.329 3.459 6.691 5.178 10.746 4.149 3.99-1.012 7.032-4.461 7.497-8.557.471-4.153-1.757-8.256-5.509-10.101-3.801-1.868-8.482-1.103-11.484 1.89-3.337 3.328-3.857 8.701-1.25 12.619z"/></g></g></svg>