<?xml version="1.0" encoding="UTF-8" standalone="no"?>
<!DOCTYPE svg PUBLIC "-//W3C//DTD SVG 1.1//EN" "http://www.w3.org/Graphics/SVG/1.1/DTD/svg11.dtd">
<svg width="100%" height="100%" viewBox="0 0 512 512" version="1.1" xmlns="http://www.w3.org/2000/svg" xmlns:xlink="http://www.w3.org/1999/xlink" xml:space="preserve" xmlns:serif="http://www.serif.com/" style="fill-rule:evenodd;clip-rule:evenodd;stroke-linejoin:round;stroke-miterlimit:2;">
    <path d="M198.24,98.061C206.451,184.091 126.21,192.518 134.42,278.538C136.316,298.369 142.074,313.162 149.852,325.277C134.904,309.515 110.685,292.414 107.687,260.994C99.466,174.964 179.717,166.537 171.496,80.506C168.498,49.085 164.872,31.974 149.914,16.223C172.042,35.622 194.129,55.041 198.24,98.061Z" style="fill-rule:nonzero;"/>
    <path d="M181.798,80.507C190.019,166.537 109.768,174.964 117.989,260.995C120.987,292.416 134.905,309.517 149.853,325.278C127.745,305.869 105.658,286.45 101.548,243.44C93.337,157.41 173.578,148.983 165.368,62.963C163.472,43.122 157.714,28.328 149.915,16.224C164.872,31.975 178.8,49.086 181.798,80.507Z" style="fill-rule:nonzero;"/>
    <path d="M304.348,98.061C312.559,184.091 232.318,192.518 240.528,278.538C242.424,298.369 248.182,313.162 255.96,325.277C241.012,309.515 216.793,292.414 213.795,260.994C205.574,174.964 285.825,166.537 277.604,80.506C274.606,49.085 270.98,31.974 256.022,16.223C278.151,35.622 300.238,55.041 304.348,98.061Z" style="fill-rule:nonzero;"/>
    <path d="M287.907,80.507C296.128,166.537 215.877,174.964 224.098,260.995C227.096,292.416 241.014,309.517 255.961,325.278C233.853,305.869 211.766,286.45 207.656,243.44C199.445,157.41 279.686,148.983 271.476,62.963C269.58,43.122 263.822,28.328 256.023,16.224C270.981,31.975 284.909,49.086 287.907,80.507Z" style="fill-rule:nonzero;"/>
    <path d="M410.455,98.065C418.666,184.095 338.425,192.522 346.635,278.542C348.531,298.373 354.289,313.166 362.067,325.281C347.119,309.519 322.9,292.418 319.902,260.998C311.681,174.968 391.932,166.541 383.711,80.51C380.713,49.089 377.087,31.978 362.129,16.227C384.258,35.626 406.345,55.045 410.455,98.065Z" style="fill-rule:nonzero;"/>
    <path d="M394.013,80.511C402.234,166.541 321.983,174.968 330.204,260.999C333.202,292.42 347.12,309.521 362.067,325.282C339.959,305.873 317.872,286.454 313.762,243.444C305.551,157.414 385.792,148.987 377.582,62.967C375.686,43.126 369.928,28.332 362.129,16.228C377.087,31.979 391.016,49.09 394.013,80.511Z" style="fill-rule:nonzero;"/>
    <path d="M447.418,294.376C487.585,315.742 512,343.887 512,374.73C512,441.063 399.166,495.766 259.307,495.766C319.871,495.766 470.793,440.991 470.793,374.73C470.793,359.03 475.532,344.031 465.415,330.267C464.189,317.524 457.874,305.41 447.418,294.376Z" style="fill-rule:nonzero;"/>
    <path d="M465.415,330.268C475.531,344.031 481.094,359.031 481.094,374.731C481.094,440.992 382.094,494.809 259.306,495.767C258.204,495.777 257.101,495.777 255.999,495.777C114.617,495.777 -0.001,441.589 -0.001,374.731C-0.001,343.887 24.414,315.743 64.581,294.377C52.878,306.729 46.357,320.43 46.357,334.843C46.357,389.587 140.217,433.967 255.999,433.967C371.781,433.967 465.641,389.587 465.641,334.843C465.642,333.307 465.57,331.782 465.415,330.268Z" style="fill-rule:nonzero;"/>
</svg>
