<svg id="Capa_1" enable-background="new 0 0 510.004 510.004" height="512" viewBox="0 0 510.004 510.004" width="512" xmlns="http://www.w3.org/2000/svg"><g><path d="m510 357.991v-357.989h-30v30h-450v-30h-30v360h.004l-.004 27.923h.016c25.464 0 39.244-8.427 50.315-15.198 9.859-6.029 17.644-10.791 34.664-10.791h.012c17.026.002 24.813 4.767 34.673 10.8 11.072 6.775 24.852 15.208 50.327 15.211h.017c9.985 0 18.168-1.299 25.101-3.283-.078 1.771-.125 3.549-.125 5.338 0 66.168 53.832 120 120 120s120-53.832 120-120c0-9.542-1.125-18.824-3.24-27.729 12.522 1.108 19.467 5.337 27.915 10.507 11.072 6.775 24.852 15.208 50.325 15.211l.004-30c-.002 0-.003 0-.004 0zm-30-147.989h-30v-150h30zm-318-90h42v30h-42zm-30 30h-42v-30h42zm102-30h42v30h-42zm72 0h42v30h-42zm72 0h42v30h-42zm0-30v-30h42v30zm-30 0h-42v-30h42zm-72 0h-42v-30h42zm-72 0h-42v-30h42zm-72 0h-42v-30h42zm0 90v30h-42v-30zm30 0h42v30h-42zm72 0h42v30h-42zm72 0h42v30h-42zm72 0h42v30h-42zm-318-120v150h-30v-150zm165.188 335.729 102.595 83.359c-4.177.596-8.443.912-12.783.912-47.701 0-86.847-37.304-89.812-84.271zm135.743 71.638-131.086-106.508c3.721-10.842 9.458-20.754 16.761-29.29l139.591 113.418c-6.928 8.95-15.502 16.562-25.266 22.38zm44.069-77.367c0 9.767-1.57 19.173-4.461 27.986l-27.655-22.47 27.947-32.605c2.706 8.554 4.169 17.653 4.169 27.089zm-55.407-13.408-29.027-23.585 36.158-42.732c11.293 5.934 21.182 14.194 29.017 24.145zm-52.315-42.506-27.165-22.071c13.22-7.639 28.552-12.015 44.887-12.015 3.583 0 7.115.217 10.59.626zm127.733-2.108c-.008 0-.014 0-.021 0-1.679 0-3.314.04-4.92.109-20.467-36.986-59.89-62.087-105.07-62.087-51.608 0-95.71 32.749-112.62 78.556-8.841 5.347-16.685 9.388-32.355 9.388-.005 0-.01 0-.014 0-17.026-.002-24.813-4.767-34.673-10.8-11.072-6.775-24.852-15.208-50.327-15.211-.006 0-.009 0-.015 0-25.463 0-39.245 8.427-50.316 15.198-1.599.978-3.142 1.917-4.68 2.813v-109.944h450v109.996c-1.533-.894-3.072-1.831-4.666-2.807-11.072-6.775-24.851-15.208-50.323-15.211z"/></g></svg>