<?xml version="1.0" encoding="utf-8"?>
<!-- Generator: Adobe Illustrator 15.0.0, SVG Export Plug-In . SVG Version: 6.00 Build 0)  -->
<!DOCTYPE svg PUBLIC "-//W3C//DTD SVG 1.1//EN" "http://www.w3.org/Graphics/SVG/1.1/DTD/svg11.dtd">
<svg version="1.1" id="圖層_1" xmlns="http://www.w3.org/2000/svg" xmlns:xlink="http://www.w3.org/1999/xlink" x="0px" y="0px"
	 width="141.73px" height="141.73px" viewBox="0 0 141.73 141.73" enable-background="new 0 0 141.73 141.73" xml:space="preserve">
<g>
	<ellipse fill="#3370B8" cx="72.918" cy="21.592" rx="44.17" ry="8.694"/>
	<path fill="#152844" d="M83.701,120.546l-5.38-99.108c0-3.08-2.496-5.576-5.576-5.576c-3.079,0-5.576,2.496-5.576,5.576
		l-4.685,99.108H83.701z"/>
	<path fill="#3370B8" d="M96.685,124.91c-0.888-12.452-11.263-22.279-23.939-22.279c-12.679,0-23.053,9.827-23.941,22.279H96.685z"
		/>
	<circle fill="#EDCB68" cx="72.865" cy="21.438" r="3.478"/>
	<path opacity="0.23" fill="#C5E6EE" d="M71.301,122.961H51.807c0.735-9.577,9.109-17.189,19.494-17.593V122.961z"/>
	<path fill="#304267" d="M72.223,98.978c0,1.008-0.817,1.826-1.826,1.826l0,0c-1.008,0-1.825-0.818-1.825-1.826V28.288
		c0-1.009,0.817-1.826,1.825-1.826l0,0c1.009,0,1.826,0.817,1.826,1.826V98.978z"/>
	<path fill="#122743" d="M111.524,126.801c0,1.633-1.323,2.956-2.956,2.956H36.921c-1.633,0-2.956-1.323-2.956-2.956l0,0
		c0-1.633,1.323-2.956,2.956-2.956h71.647C110.201,123.845,111.524,125.168,111.524,126.801L111.524,126.801z"/>
	<g>
		<polygon fill="#122743" points="133.35,65.576 131.951,65.576 113.013,20.689 114.416,20.689 		"/>
		<polygon fill="#122743" points="91.975,65.576 93.378,65.576 112.313,20.689 110.91,20.689 		"/>
	</g>
	<path fill="#EDCB68" d="M107.391,21.681c0-2.78,2.251-5.032,5.028-5.032c2.779,0,5.035,2.252,5.035,5.032
		c0,2.773-2.256,5.026-5.035,5.026C109.642,26.707,107.391,24.454,107.391,21.681z"/>
	<rect x="91.728" y="65.356" fill="#BB2121" width="42.079" height="2.547"/>
	<path fill="#E7B151" d="M131.509,67.839h-37.45c0,7.055,8.384,12.77,18.725,12.77C123.123,80.608,131.509,74.894,131.509,67.839z"
		/>
	<path fill="#E7B151" d="M51.666,67.623H14.218c0,7.052,8.383,12.768,18.724,12.768S51.666,74.675,51.666,67.623z"/>
	<g>
		<polygon fill="#122743" points="53.492,65.576 52.092,65.576 33.157,20.689 34.557,20.689 		"/>
		<polygon fill="#122743" points="12.115,65.576 13.519,65.576 32.457,20.689 31.05,20.689 		"/>
	</g>
	<path fill="#EDCB68" d="M27.663,21.549c0-2.78,2.249-5.032,5.028-5.032c2.777,0,5.032,2.252,5.032,5.032
		c0,2.774-2.255,5.027-5.032,5.027C29.911,26.576,27.663,24.323,27.663,21.549z"/>
	<rect x="11.886" y="65.139" fill="#B22323" width="42.08" height="2.547"/>
	<path fill="#EDCB68" d="M92.533,67.798c0.743,10.417,9.424,18.641,20.031,18.641s19.287-8.224,20.029-18.641H92.533z"/>
	<path fill="#EDCB68" d="M12.784,67.548c0.743,10.417,9.423,18.641,20.031,18.641c10.607,0,19.287-8.224,20.03-18.641H12.784z"/>
</g>
</svg>
